<mxfile host="app.diagrams.net" agent="Mozilla/5.0 (Windows NT 10.0; Win64; x64) AppleWebKit/537.36 (KHTML, like Gecko) Chrome/136.0.0.0 Safari/537.36" version="27.0.3">
  <diagram name="第 1 页" id="qsjZ8vh65MT_t_7D0PmD">
    <mxGraphModel dx="2505" dy="2083" grid="1" gridSize="10" guides="1" tooltips="1" connect="1" arrows="1" fold="1" page="1" pageScale="1" pageWidth="827" pageHeight="1169" background="none" math="0" shadow="0">
      <root>
        <mxCell id="0" />
        <mxCell id="1" parent="0" />
        <mxCell id="Blk5SqEOzFpM-ZZAykTB-23" style="edgeStyle=orthogonalEdgeStyle;rounded=0;orthogonalLoop=1;jettySize=auto;html=1;exitX=1;exitY=0.5;exitDx=0;exitDy=0;entryX=0;entryY=0.5;entryDx=0;entryDy=0;" edge="1" parent="1" source="Blk5SqEOzFpM-ZZAykTB-6" target="Blk5SqEOzFpM-ZZAykTB-7">
          <mxGeometry relative="1" as="geometry">
            <Array as="points">
              <mxPoint y="420" />
              <mxPoint y="130" />
            </Array>
          </mxGeometry>
        </mxCell>
        <mxCell id="Blk5SqEOzFpM-ZZAykTB-24" style="edgeStyle=orthogonalEdgeStyle;rounded=0;orthogonalLoop=1;jettySize=auto;html=1;exitX=1;exitY=0.5;exitDx=0;exitDy=0;entryX=0;entryY=0.5;entryDx=0;entryDy=0;" edge="1" parent="1" source="Blk5SqEOzFpM-ZZAykTB-6" target="Blk5SqEOzFpM-ZZAykTB-9">
          <mxGeometry relative="1" as="geometry" />
        </mxCell>
        <mxCell id="Blk5SqEOzFpM-ZZAykTB-25" style="edgeStyle=orthogonalEdgeStyle;rounded=0;orthogonalLoop=1;jettySize=auto;html=1;exitX=1;exitY=0.5;exitDx=0;exitDy=0;entryX=0;entryY=0.5;entryDx=0;entryDy=0;" edge="1" parent="1" source="Blk5SqEOzFpM-ZZAykTB-6" target="Blk5SqEOzFpM-ZZAykTB-11">
          <mxGeometry relative="1" as="geometry" />
        </mxCell>
        <mxCell id="Blk5SqEOzFpM-ZZAykTB-6" value="&lt;span style=&quot;text-wrap-mode: nowrap;&quot;&gt;&lt;font style=&quot;font-size: 18px;&quot;&gt;index.php&lt;/font&gt;&lt;/span&gt;" style="rounded=0;whiteSpace=wrap;html=1;" vertex="1" parent="1">
          <mxGeometry x="-130" y="400" width="110" height="40" as="geometry" />
        </mxCell>
        <mxCell id="Blk5SqEOzFpM-ZZAykTB-71" style="edgeStyle=orthogonalEdgeStyle;rounded=0;orthogonalLoop=1;jettySize=auto;html=1;" edge="1" parent="1" source="Blk5SqEOzFpM-ZZAykTB-7">
          <mxGeometry relative="1" as="geometry">
            <mxPoint x="230" y="130" as="targetPoint" />
          </mxGeometry>
        </mxCell>
        <mxCell id="Blk5SqEOzFpM-ZZAykTB-7" value="&lt;font style=&quot;font-size: 18px;&quot;&gt;terminology.php&lt;/font&gt;" style="rounded=0;whiteSpace=wrap;html=1;" vertex="1" parent="1">
          <mxGeometry x="20" y="110" width="140" height="40" as="geometry" />
        </mxCell>
        <mxCell id="Blk5SqEOzFpM-ZZAykTB-10" style="edgeStyle=orthogonalEdgeStyle;rounded=0;orthogonalLoop=1;jettySize=auto;html=1;exitX=1;exitY=0.5;exitDx=0;exitDy=0;" edge="1" parent="1" source="Blk5SqEOzFpM-ZZAykTB-9">
          <mxGeometry relative="1" as="geometry">
            <mxPoint x="150" y="420" as="targetPoint" />
          </mxGeometry>
        </mxCell>
        <mxCell id="Blk5SqEOzFpM-ZZAykTB-12" style="edgeStyle=orthogonalEdgeStyle;rounded=0;orthogonalLoop=1;jettySize=auto;html=1;exitX=1;exitY=0.5;exitDx=0;exitDy=0;entryX=0;entryY=0.5;entryDx=0;entryDy=0;" edge="1" parent="1" source="Blk5SqEOzFpM-ZZAykTB-9" target="Blk5SqEOzFpM-ZZAykTB-15">
          <mxGeometry relative="1" as="geometry">
            <mxPoint x="280" y="420" as="targetPoint" />
          </mxGeometry>
        </mxCell>
        <mxCell id="Blk5SqEOzFpM-ZZAykTB-9" value="&lt;font style=&quot;font-size: 18px;&quot;&gt;optimize.php&lt;/font&gt;" style="rounded=0;whiteSpace=wrap;html=1;" vertex="1" parent="1">
          <mxGeometry x="20" y="400" width="140" height="40" as="geometry" />
        </mxCell>
        <mxCell id="Blk5SqEOzFpM-ZZAykTB-11" value="&lt;font style=&quot;font-size: 18px;&quot;&gt;history.php&lt;/font&gt;" style="rounded=0;whiteSpace=wrap;html=1;" vertex="1" parent="1">
          <mxGeometry x="20" y="640" width="140" height="40" as="geometry" />
        </mxCell>
        <mxCell id="Blk5SqEOzFpM-ZZAykTB-13" value="&lt;font style=&quot;font-size: 18px;&quot;&gt;Text / File&lt;/font&gt;" style="text;html=1;align=center;verticalAlign=middle;whiteSpace=wrap;rounded=0;" vertex="1" parent="1">
          <mxGeometry x="154" y="390" width="110" height="30" as="geometry" />
        </mxCell>
        <mxCell id="Blk5SqEOzFpM-ZZAykTB-15" value="&lt;font size=&quot;3&quot;&gt;Upload type&lt;/font&gt;" style="rhombus;whiteSpace=wrap;html=1;" vertex="1" parent="1">
          <mxGeometry x="264" y="387.5" width="150" height="65" as="geometry" />
        </mxCell>
        <mxCell id="Blk5SqEOzFpM-ZZAykTB-37" style="edgeStyle=orthogonalEdgeStyle;rounded=0;orthogonalLoop=1;jettySize=auto;html=1;dashed=1;endArrow=none;startFill=0;" edge="1" parent="1" source="Blk5SqEOzFpM-ZZAykTB-19">
          <mxGeometry relative="1" as="geometry">
            <mxPoint x="660" y="290" as="targetPoint" />
          </mxGeometry>
        </mxCell>
        <mxCell id="Blk5SqEOzFpM-ZZAykTB-19" value="&lt;font style=&quot;font-size: 18px;&quot;&gt;Sentence split&lt;/font&gt;" style="rounded=0;whiteSpace=wrap;html=1;" vertex="1" parent="1">
          <mxGeometry x="470" y="270" width="140" height="40" as="geometry" />
        </mxCell>
        <mxCell id="Blk5SqEOzFpM-ZZAykTB-35" style="edgeStyle=orthogonalEdgeStyle;rounded=0;orthogonalLoop=1;jettySize=auto;html=1;endArrow=none;startFill=0;dashed=1;" edge="1" parent="1" source="Blk5SqEOzFpM-ZZAykTB-20">
          <mxGeometry relative="1" as="geometry">
            <mxPoint x="430" y="420" as="targetPoint" />
          </mxGeometry>
        </mxCell>
        <mxCell id="Blk5SqEOzFpM-ZZAykTB-36" style="edgeStyle=orthogonalEdgeStyle;rounded=0;orthogonalLoop=1;jettySize=auto;html=1;entryX=0;entryY=0.5;entryDx=0;entryDy=0;dashed=1;" edge="1" parent="1" source="Blk5SqEOzFpM-ZZAykTB-20" target="Blk5SqEOzFpM-ZZAykTB-19">
          <mxGeometry relative="1" as="geometry">
            <Array as="points">
              <mxPoint x="430" y="290" />
            </Array>
          </mxGeometry>
        </mxCell>
        <mxCell id="Blk5SqEOzFpM-ZZAykTB-20" value="&lt;font style=&quot;font-size: 18px;&quot;&gt;File&lt;/font&gt;" style="text;html=1;align=center;verticalAlign=middle;whiteSpace=wrap;rounded=0;" vertex="1" parent="1">
          <mxGeometry x="400" y="330" width="60" height="30" as="geometry" />
        </mxCell>
        <mxCell id="Blk5SqEOzFpM-ZZAykTB-32" style="rounded=0;orthogonalLoop=1;jettySize=auto;html=1;dashed=1;strokeColor=default;startArrow=none;startFill=0;endArrow=none;entryX=1;entryY=0.5;entryDx=0;entryDy=0;" edge="1" parent="1" source="Blk5SqEOzFpM-ZZAykTB-27" target="Blk5SqEOzFpM-ZZAykTB-15">
          <mxGeometry relative="1" as="geometry">
            <mxPoint x="430" y="420" as="targetPoint" />
          </mxGeometry>
        </mxCell>
        <mxCell id="Blk5SqEOzFpM-ZZAykTB-33" style="edgeStyle=orthogonalEdgeStyle;rounded=0;orthogonalLoop=1;jettySize=auto;html=1;dashed=1;endArrow=none;startFill=0;" edge="1" parent="1" source="Blk5SqEOzFpM-ZZAykTB-27">
          <mxGeometry relative="1" as="geometry">
            <mxPoint x="660" y="290" as="targetPoint" />
          </mxGeometry>
        </mxCell>
        <mxCell id="Blk5SqEOzFpM-ZZAykTB-27" value="&lt;font style=&quot;font-size: 18px;&quot;&gt;Text&lt;/font&gt;" style="text;html=1;align=center;verticalAlign=middle;whiteSpace=wrap;rounded=0;fillColor=none;" vertex="1" parent="1">
          <mxGeometry x="510" y="405" width="60" height="30" as="geometry" />
        </mxCell>
        <mxCell id="Blk5SqEOzFpM-ZZAykTB-40" value="" style="endArrow=classic;html=1;rounded=0;" edge="1" parent="1">
          <mxGeometry width="50" height="50" relative="1" as="geometry">
            <mxPoint x="660" y="290" as="sourcePoint" />
            <mxPoint x="720" y="290" as="targetPoint" />
            <Array as="points">
              <mxPoint x="690" y="290" />
            </Array>
          </mxGeometry>
        </mxCell>
        <mxCell id="Blk5SqEOzFpM-ZZAykTB-45" style="edgeStyle=orthogonalEdgeStyle;rounded=0;orthogonalLoop=1;jettySize=auto;html=1;endArrow=none;startFill=0;dashed=1;" edge="1" parent="1">
          <mxGeometry relative="1" as="geometry">
            <mxPoint x="828" y="380" as="targetPoint" />
            <mxPoint x="830" y="320" as="sourcePoint" />
            <Array as="points">
              <mxPoint x="828" y="320" />
            </Array>
          </mxGeometry>
        </mxCell>
        <mxCell id="Blk5SqEOzFpM-ZZAykTB-52" style="edgeStyle=orthogonalEdgeStyle;rounded=0;orthogonalLoop=1;jettySize=auto;html=1;endArrow=none;startFill=0;dashed=1;" edge="1" parent="1" source="Blk5SqEOzFpM-ZZAykTB-42">
          <mxGeometry relative="1" as="geometry">
            <mxPoint x="980" y="290" as="targetPoint" />
          </mxGeometry>
        </mxCell>
        <mxCell id="Blk5SqEOzFpM-ZZAykTB-56" style="edgeStyle=orthogonalEdgeStyle;rounded=0;orthogonalLoop=1;jettySize=auto;html=1;endArrow=none;startFill=0;dashed=1;" edge="1" parent="1">
          <mxGeometry relative="1" as="geometry">
            <mxPoint x="827" y="230" as="targetPoint" />
            <mxPoint x="827" y="260" as="sourcePoint" />
            <Array as="points">
              <mxPoint x="827" y="230" />
            </Array>
          </mxGeometry>
        </mxCell>
        <mxCell id="Blk5SqEOzFpM-ZZAykTB-42" value="&lt;font style=&quot;font-size: 18px;&quot;&gt;Text optimization&lt;/font&gt;" style="rhombus;whiteSpace=wrap;html=1;rounded=0;" vertex="1" parent="1">
          <mxGeometry x="722" y="260" width="210" height="60" as="geometry" />
        </mxCell>
        <mxCell id="Blk5SqEOzFpM-ZZAykTB-47" value="&lt;font style=&quot;font-size: 18px;&quot;&gt;Optimized text&lt;/font&gt;" style="rounded=0;whiteSpace=wrap;html=1;" vertex="1" parent="1">
          <mxGeometry x="755" y="480" width="140" height="40" as="geometry" />
        </mxCell>
        <mxCell id="Blk5SqEOzFpM-ZZAykTB-50" style="edgeStyle=orthogonalEdgeStyle;rounded=0;orthogonalLoop=1;jettySize=auto;html=1;entryX=0.5;entryY=0;entryDx=0;entryDy=0;dashed=1;" edge="1" parent="1">
          <mxGeometry relative="1" as="geometry">
            <mxPoint x="827" y="420" as="sourcePoint" />
            <mxPoint x="827" y="480" as="targetPoint" />
          </mxGeometry>
        </mxCell>
        <mxCell id="Blk5SqEOzFpM-ZZAykTB-49" value="&lt;font style=&quot;font-size: 18px;&quot;&gt;Approve&lt;/font&gt;" style="text;html=1;align=center;verticalAlign=middle;whiteSpace=wrap;rounded=0;fillColor=none;" vertex="1" parent="1">
          <mxGeometry x="797" y="387.5" width="60" height="30" as="geometry" />
        </mxCell>
        <mxCell id="Blk5SqEOzFpM-ZZAykTB-54" style="edgeStyle=orthogonalEdgeStyle;rounded=0;orthogonalLoop=1;jettySize=auto;html=1;entryX=0.424;entryY=-0.008;entryDx=0;entryDy=0;entryPerimeter=0;dashed=1;" edge="1" parent="1" source="Blk5SqEOzFpM-ZZAykTB-53" target="Blk5SqEOzFpM-ZZAykTB-55">
          <mxGeometry relative="1" as="geometry">
            <mxPoint x="1020" y="480" as="targetPoint" />
            <Array as="points" />
          </mxGeometry>
        </mxCell>
        <mxCell id="Blk5SqEOzFpM-ZZAykTB-53" value="&lt;font style=&quot;font-size: 18px;&quot;&gt;Reject&lt;/font&gt;" style="text;html=1;align=center;verticalAlign=middle;whiteSpace=wrap;rounded=0;fillColor=none;" vertex="1" parent="1">
          <mxGeometry x="980" y="275" width="60" height="30" as="geometry" />
        </mxCell>
        <mxCell id="Blk5SqEOzFpM-ZZAykTB-55" value="&lt;font style=&quot;font-size: 18px;&quot;&gt;Original text&lt;/font&gt;" style="rounded=0;whiteSpace=wrap;html=1;" vertex="1" parent="1">
          <mxGeometry x="950" y="480" width="140" height="40" as="geometry" />
        </mxCell>
        <mxCell id="Blk5SqEOzFpM-ZZAykTB-59" style="edgeStyle=orthogonalEdgeStyle;rounded=0;orthogonalLoop=1;jettySize=auto;html=1;dashed=1;" edge="1" parent="1" source="Blk5SqEOzFpM-ZZAykTB-58">
          <mxGeometry relative="1" as="geometry">
            <mxPoint x="1120" y="215" as="targetPoint" />
          </mxGeometry>
        </mxCell>
        <mxCell id="Blk5SqEOzFpM-ZZAykTB-58" value="&lt;font style=&quot;font-size: 18px;&quot;&gt;Modify&lt;/font&gt;" style="text;html=1;align=center;verticalAlign=middle;whiteSpace=wrap;rounded=0;fillColor=none;" vertex="1" parent="1">
          <mxGeometry x="797" y="200" width="60" height="30" as="geometry" />
        </mxCell>
        <mxCell id="Blk5SqEOzFpM-ZZAykTB-60" value="&lt;font style=&quot;font-size: 18px;&quot;&gt;Modified text&lt;/font&gt;" style="rounded=0;whiteSpace=wrap;html=1;" vertex="1" parent="1">
          <mxGeometry x="1120" y="195" width="140" height="40" as="geometry" />
        </mxCell>
        <mxCell id="Blk5SqEOzFpM-ZZAykTB-69" style="edgeStyle=orthogonalEdgeStyle;rounded=0;orthogonalLoop=1;jettySize=auto;html=1;entryX=1;entryY=0.5;entryDx=0;entryDy=0;" edge="1" parent="1" source="Blk5SqEOzFpM-ZZAykTB-65" target="Blk5SqEOzFpM-ZZAykTB-11">
          <mxGeometry relative="1" as="geometry" />
        </mxCell>
        <mxCell id="Blk5SqEOzFpM-ZZAykTB-65" value="&lt;font style=&quot;font-size: 18px;&quot;&gt;Database&lt;/font&gt;" style="strokeWidth=2;html=1;shape=mxgraph.flowchart.direct_data;whiteSpace=wrap;" vertex="1" parent="1">
          <mxGeometry x="380" y="630" width="160" height="60" as="geometry" />
        </mxCell>
        <mxCell id="Blk5SqEOzFpM-ZZAykTB-66" style="edgeStyle=orthogonalEdgeStyle;rounded=0;orthogonalLoop=1;jettySize=auto;html=1;entryX=1;entryY=0.5;entryDx=0;entryDy=0;entryPerimeter=0;" edge="1" parent="1" source="Blk5SqEOzFpM-ZZAykTB-47" target="Blk5SqEOzFpM-ZZAykTB-65">
          <mxGeometry relative="1" as="geometry">
            <Array as="points">
              <mxPoint x="825" y="660" />
            </Array>
          </mxGeometry>
        </mxCell>
        <mxCell id="Blk5SqEOzFpM-ZZAykTB-67" style="edgeStyle=orthogonalEdgeStyle;rounded=0;orthogonalLoop=1;jettySize=auto;html=1;entryX=1;entryY=0.5;entryDx=0;entryDy=0;entryPerimeter=0;" edge="1" parent="1" source="Blk5SqEOzFpM-ZZAykTB-55" target="Blk5SqEOzFpM-ZZAykTB-65">
          <mxGeometry relative="1" as="geometry">
            <Array as="points">
              <mxPoint x="1020" y="660" />
            </Array>
          </mxGeometry>
        </mxCell>
        <mxCell id="Blk5SqEOzFpM-ZZAykTB-68" style="edgeStyle=orthogonalEdgeStyle;rounded=0;orthogonalLoop=1;jettySize=auto;html=1;entryX=1;entryY=0.5;entryDx=0;entryDy=0;entryPerimeter=0;" edge="1" parent="1" source="Blk5SqEOzFpM-ZZAykTB-60" target="Blk5SqEOzFpM-ZZAykTB-65">
          <mxGeometry relative="1" as="geometry">
            <Array as="points">
              <mxPoint x="1190" y="660" />
            </Array>
          </mxGeometry>
        </mxCell>
        <mxCell id="Blk5SqEOzFpM-ZZAykTB-74" style="edgeStyle=orthogonalEdgeStyle;rounded=0;orthogonalLoop=1;jettySize=auto;html=1;endArrow=none;startFill=0;" edge="1" parent="1" source="Blk5SqEOzFpM-ZZAykTB-73">
          <mxGeometry relative="1" as="geometry">
            <mxPoint x="430" y="130" as="targetPoint" />
          </mxGeometry>
        </mxCell>
        <mxCell id="Blk5SqEOzFpM-ZZAykTB-80" style="edgeStyle=orthogonalEdgeStyle;rounded=0;orthogonalLoop=1;jettySize=auto;html=1;endArrow=none;startFill=0;entryX=0.5;entryY=1;entryDx=0;entryDy=0;" edge="1" parent="1" source="Blk5SqEOzFpM-ZZAykTB-73" target="Blk5SqEOzFpM-ZZAykTB-81">
          <mxGeometry relative="1" as="geometry">
            <mxPoint x="306" y="60" as="targetPoint" />
          </mxGeometry>
        </mxCell>
        <mxCell id="Blk5SqEOzFpM-ZZAykTB-73" value="&lt;font size=&quot;3&quot;&gt;User role&lt;/font&gt;" style="rhombus;whiteSpace=wrap;html=1;" vertex="1" parent="1">
          <mxGeometry x="231" y="97.5" width="150" height="65" as="geometry" />
        </mxCell>
        <mxCell id="Blk5SqEOzFpM-ZZAykTB-78" style="edgeStyle=orthogonalEdgeStyle;rounded=0;orthogonalLoop=1;jettySize=auto;html=1;entryX=0;entryY=0.5;entryDx=0;entryDy=0;" edge="1" parent="1" source="Blk5SqEOzFpM-ZZAykTB-77" target="Blk5SqEOzFpM-ZZAykTB-86">
          <mxGeometry relative="1" as="geometry">
            <mxPoint x="580" y="130" as="targetPoint" />
          </mxGeometry>
        </mxCell>
        <mxCell id="Blk5SqEOzFpM-ZZAykTB-87" style="edgeStyle=orthogonalEdgeStyle;rounded=0;orthogonalLoop=1;jettySize=auto;html=1;entryX=0;entryY=0.5;entryDx=0;entryDy=0;" edge="1" parent="1" source="Blk5SqEOzFpM-ZZAykTB-77" target="Blk5SqEOzFpM-ZZAykTB-85">
          <mxGeometry relative="1" as="geometry" />
        </mxCell>
        <mxCell id="Blk5SqEOzFpM-ZZAykTB-88" style="edgeStyle=orthogonalEdgeStyle;rounded=0;orthogonalLoop=1;jettySize=auto;html=1;entryX=-0.002;entryY=0.132;entryDx=0;entryDy=0;entryPerimeter=0;" edge="1" parent="1" source="Blk5SqEOzFpM-ZZAykTB-77" target="Blk5SqEOzFpM-ZZAykTB-84">
          <mxGeometry relative="1" as="geometry" />
        </mxCell>
        <mxCell id="Blk5SqEOzFpM-ZZAykTB-89" style="edgeStyle=orthogonalEdgeStyle;rounded=0;orthogonalLoop=1;jettySize=auto;html=1;entryX=0;entryY=0.5;entryDx=0;entryDy=0;" edge="1" parent="1" source="Blk5SqEOzFpM-ZZAykTB-77" target="Blk5SqEOzFpM-ZZAykTB-83">
          <mxGeometry relative="1" as="geometry" />
        </mxCell>
        <mxCell id="Blk5SqEOzFpM-ZZAykTB-77" value="&lt;font style=&quot;font-size: 18px;&quot;&gt;Admin&lt;/font&gt;" style="text;html=1;align=center;verticalAlign=middle;whiteSpace=wrap;rounded=0;fillColor=none;" vertex="1" parent="1">
          <mxGeometry x="440" y="115" width="60" height="30" as="geometry" />
        </mxCell>
        <mxCell id="Blk5SqEOzFpM-ZZAykTB-92" style="edgeStyle=orthogonalEdgeStyle;rounded=0;orthogonalLoop=1;jettySize=auto;html=1;exitX=1;exitY=0.5;exitDx=0;exitDy=0;entryX=0.5;entryY=0;entryDx=0;entryDy=0;" edge="1" parent="1" source="Blk5SqEOzFpM-ZZAykTB-81" target="Blk5SqEOzFpM-ZZAykTB-83">
          <mxGeometry relative="1" as="geometry" />
        </mxCell>
        <mxCell id="Blk5SqEOzFpM-ZZAykTB-94" style="edgeStyle=orthogonalEdgeStyle;rounded=0;orthogonalLoop=1;jettySize=auto;html=1;entryX=0;entryY=0.75;entryDx=0;entryDy=0;" edge="1" parent="1" source="Blk5SqEOzFpM-ZZAykTB-81" target="Blk5SqEOzFpM-ZZAykTB-84">
          <mxGeometry relative="1" as="geometry" />
        </mxCell>
        <mxCell id="Blk5SqEOzFpM-ZZAykTB-81" value="&lt;span style=&quot;font-size: 18px;&quot;&gt;User&lt;/span&gt;" style="text;html=1;align=center;verticalAlign=middle;whiteSpace=wrap;rounded=0;fillColor=none;" vertex="1" parent="1">
          <mxGeometry x="276" y="-90" width="60" height="30" as="geometry" />
        </mxCell>
        <mxCell id="Blk5SqEOzFpM-ZZAykTB-83" value="&lt;font style=&quot;font-size: 18px;&quot;&gt;Search terms&lt;/font&gt;" style="rounded=0;whiteSpace=wrap;html=1;" vertex="1" parent="1">
          <mxGeometry x="620" y="-50" width="140" height="40" as="geometry" />
        </mxCell>
        <mxCell id="Blk5SqEOzFpM-ZZAykTB-84" value="&lt;font style=&quot;font-size: 18px;&quot;&gt;Add terms&lt;/font&gt;" style="rounded=0;whiteSpace=wrap;html=1;" vertex="1" parent="1">
          <mxGeometry x="620" y="10" width="140" height="40" as="geometry" />
        </mxCell>
        <mxCell id="Blk5SqEOzFpM-ZZAykTB-85" value="&lt;font style=&quot;font-size: 18px;&quot;&gt;Modify terms&lt;/font&gt;" style="rounded=0;whiteSpace=wrap;html=1;" vertex="1" parent="1">
          <mxGeometry x="620" y="69" width="140" height="40" as="geometry" />
        </mxCell>
        <mxCell id="Blk5SqEOzFpM-ZZAykTB-107" style="edgeStyle=orthogonalEdgeStyle;rounded=0;orthogonalLoop=1;jettySize=auto;html=1;" edge="1" parent="1" source="Blk5SqEOzFpM-ZZAykTB-86">
          <mxGeometry relative="1" as="geometry">
            <mxPoint x="970" y="100" as="targetPoint" />
          </mxGeometry>
        </mxCell>
        <mxCell id="Blk5SqEOzFpM-ZZAykTB-86" value="&lt;font style=&quot;font-size: 18px;&quot;&gt;Delete terms&lt;/font&gt;" style="rounded=0;whiteSpace=wrap;html=1;" vertex="1" parent="1">
          <mxGeometry x="620" y="130" width="140" height="40" as="geometry" />
        </mxCell>
        <mxCell id="Blk5SqEOzFpM-ZZAykTB-98" value="&lt;font style=&quot;font-size: 18px;&quot;&gt;Database&lt;/font&gt;" style="strokeWidth=2;html=1;shape=mxgraph.flowchart.direct_data;whiteSpace=wrap;" vertex="1" parent="1">
          <mxGeometry x="900" y="37.5" width="160" height="60" as="geometry" />
        </mxCell>
        <mxCell id="Blk5SqEOzFpM-ZZAykTB-105" style="edgeStyle=orthogonalEdgeStyle;rounded=0;orthogonalLoop=1;jettySize=auto;html=1;entryX=-0.008;entryY=0.397;entryDx=0;entryDy=0;entryPerimeter=0;" edge="1" parent="1" source="Blk5SqEOzFpM-ZZAykTB-84" target="Blk5SqEOzFpM-ZZAykTB-98">
          <mxGeometry relative="1" as="geometry" />
        </mxCell>
        <mxCell id="Blk5SqEOzFpM-ZZAykTB-106" style="edgeStyle=orthogonalEdgeStyle;rounded=0;orthogonalLoop=1;jettySize=auto;html=1;entryX=0.008;entryY=0.858;entryDx=0;entryDy=0;entryPerimeter=0;" edge="1" parent="1" source="Blk5SqEOzFpM-ZZAykTB-85" target="Blk5SqEOzFpM-ZZAykTB-98">
          <mxGeometry relative="1" as="geometry" />
        </mxCell>
      </root>
    </mxGraphModel>
  </diagram>
</mxfile>
